<svg xmlns="http://www.w3.org/2000/svg" width="32" height="32" viewBox="400 450 1250 750">
  <path fill="#FA5421" d="M880.542 546.058C970.385 498.572 1077.95 498.849 1167.55 546.796C1242.39 509.021 1319.43 498.978 1400.16 525.604C1478.36 551.128 1543.06 606.94 1579.78 680.547C1616.09 753.715 1622.15 838.23 1596.66 915.831C1571.22 991.173 1514.76 1057.24 1443.21 1092.29C1371 1127.97 1287.54 1133.37 1211.33 1107.28C1197.62 1102.55 1178.26 1094.34 1165.52 1086.8C1077 1133.31 971.323 1133.58 882.569 1087.52C866.211 1096.07 853.26 1102.05 835.688 1107.93C759.147 1133.1 675.791 1127.27 603.502 1091.68C530.715 1054.89 475.51 990.7 450.012 913.228C425.13 835.659 431.598 751.431 468.033 678.571C504.584 607.175 572.618 550.22 648.981 525.714C727.619 500.478 807.537 508.488 880.542 546.058Z"/>
  <path fill="#0D0B0C" d="M1167.55 546.796C1242.39 509.021 1319.43 498.978 1400.16 525.604C1478.36 551.128 1543.06 606.94 1579.78 680.547C1616.09 753.715 1622.15 838.23 1596.66 915.831C1571.22 991.173 1514.76 1057.24 1443.21 1092.29C1371 1127.97 1287.54 1133.37 1211.33 1107.28C1197.62 1102.55 1178.26 1094.34 1165.52 1086.8C1265.66 1034.18 1328.54 930.537 1328.97 817.41C1329.4 704.282 1267.3 600.173 1167.55 546.796Z"/>
  <path fill="#0D0B0C" d="M882.569 1087.52C866.211 1096.07 853.26 1102.05 835.688 1107.93C759.147 1133.1 675.791 1127.27 603.502 1091.68C530.715 1054.89 475.51 990.7 450.012 913.228C425.13 835.659 431.598 751.431 468.033 678.571C504.584 607.175 572.618 550.22 648.981 525.714C727.619 500.478 807.537 508.488 880.542 546.058C780.028 599.184 717.311 703.712 717.737 817.402C718.162 931.091 781.66 1035.15 882.569 1087.52Z"/>
</svg>
