<?xml version="1.0" encoding="utf-8" ?><svg xmlns="http://www.w3.org/2000/svg" xmlns:xlink="http://www.w3.org/1999/xlink" width="2048" height="2048" viewBox="0 0 2048 2048"><path fill="white" d="M0 0L2048 0L2048 2048L0 2048L0 0Z"/><path fill="#FA5421" d="M880.542 546.058C970.385 498.572 1077.95 498.849 1167.55 546.796C1242.39 509.021 1319.43 498.978 1400.16 525.604C1478.36 551.128 1543.06 606.94 1579.78 680.547C1616.09 753.715 1622.15 838.23 1596.66 915.831C1571.22 991.173 1514.76 1057.24 1443.21 1092.29C1371 1127.97 1287.54 1133.37 1211.33 1107.28C1197.62 1102.55 1178.26 1094.34 1165.52 1086.8C1077 1133.31 971.323 1133.58 882.569 1087.52C866.211 1096.07 853.26 1102.05 835.688 1107.93C759.147 1133.1 675.791 1127.27 603.502 1091.68C530.715 1054.89 475.51 990.7 450.012 913.228C425.13 835.659 431.598 751.431 468.033 678.571C504.584 607.175 572.618 550.22 648.981 525.714C727.619 500.478 807.537 508.488 880.542 546.058Z"/><path fill="#0D0B0C" d="M1167.55 546.796C1242.39 509.021 1319.43 498.978 1400.16 525.604C1478.36 551.128 1543.06 606.94 1579.78 680.547C1616.09 753.715 1622.15 838.23 1596.66 915.831C1571.22 991.173 1514.76 1057.24 1443.21 1092.29C1371 1127.97 1287.54 1133.37 1211.33 1107.28C1197.62 1102.55 1178.26 1094.34 1165.52 1086.8C1265.66 1034.18 1328.54 930.537 1328.97 817.41C1329.4 704.282 1267.3 600.173 1167.55 546.796Z"/><path fill="#0D0B0C" d="M882.569 1087.52C866.211 1096.07 853.26 1102.05 835.688 1107.93C759.147 1133.1 675.791 1127.27 603.502 1091.68C530.715 1054.89 475.51 990.7 450.012 913.228C425.13 835.659 431.598 751.431 468.033 678.571C504.584 607.175 572.618 550.22 648.981 525.714C727.619 500.478 807.537 508.488 880.542 546.058C780.028 599.184 717.311 703.712 717.737 817.402C718.162 931.091 781.66 1035.15 882.569 1087.52Z"/><path fill="#0D0B0C" d="M354.931 1255.23C381.866 1254.56 409.174 1255.35 436.15 1254.93C449.93 1254.71 466.185 1254.33 479.569 1257.01C491.904 1259.44 503.558 1264.54 513.711 1271.95C543.325 1294.04 553.782 1341.74 527.904 1372.55C523.429 1377.88 514.065 1381.76 509.344 1387.92C510.673 1389.8 515.044 1392.91 517.187 1394.14C557.691 1417.35 563.64 1466.87 536.786 1504.61C529.928 1512.51 522.14 1519.43 512.971 1524.53C502.159 1530.54 489.788 1533.92 477.581 1535.58C462.88 1537.58 364.608 1538.52 353.205 1535.06C348.576 1533.66 344.784 1531.54 342.463 1527.16C340.816 1524.05 340.617 1520.75 340.478 1517.29C339.461 1492.02 338.817 1274.49 341.629 1266.61C343.817 1260.49 349.296 1257.6 354.931 1255.23Z"/><path fill="white" d="M383.977 1406.42L429.631 1406.33C452.851 1406.27 483.872 1403.91 501.555 1421.46C521.337 1441.09 518.351 1469.17 499.497 1487.68C496.169 1490.22 491.496 1492.8 487.582 1494.23C483.611 1495.72 479.452 1496.65 475.225 1496.99C463.746 1498.02 388.089 1498.69 379.895 1494.92C376.56 1483.34 377.298 1426.74 378.944 1411.33C379.207 1408.88 382.123 1407.49 383.977 1406.42Z"/><path fill="white" d="M382.821 1290C384.333 1289.89 385.846 1289.8 387.36 1289.73C396.605 1289.31 412.727 1289.6 422.352 1289.82C444.349 1290.83 475.408 1284.61 492.672 1302.31C511.291 1321.41 507.924 1346.44 490.301 1364.18C484.353 1368.41 472.87 1374.6 466.006 1374.35C448.579 1373.71 395.776 1378.64 381.994 1373.35C379.14 1369.33 379.008 1361.71 379.042 1356.75C379.18 1336.41 378.418 1315.9 379.589 1295.61C379.709 1293.53 381.559 1291.48 382.821 1290Z"/><path fill="#0D0B0C" d="M1279.18 1331.62C1335.73 1324.58 1387.32 1364.63 1394.54 1421.16C1401.75 1477.69 1361.86 1529.4 1305.35 1536.79C1248.6 1544.2 1196.61 1504.11 1189.37 1447.33C1182.13 1390.56 1222.38 1338.7 1279.18 1331.62Z"/><path fill="white" d="M1281.52 1363.59C1320.05 1357.88 1355.89 1384.58 1361.44 1423.13C1366.98 1461.69 1340.13 1497.41 1301.55 1502.79C1263.21 1508.14 1227.75 1481.48 1222.24 1443.16C1216.72 1404.84 1243.23 1369.27 1281.52 1363.59Z"/><path fill="#0D0B0C" d="M860.707 1329.39C861.623 1329.33 862.54 1329.27 863.457 1329.22C918.311 1326.48 963.724 1367.64 968.045 1422.58C968.757 1431.63 963.176 1440.82 953.429 1441.39C937.307 1442.33 920.833 1441.84 904.608 1441.82L800.965 1441.85C812.059 1508.93 892.553 1526.68 927.693 1473.53C930.022 1469.42 935.136 1462.22 939.773 1462.25C965.455 1462.39 965.107 1481.6 951.604 1498.57C919.65 1540.83 852.139 1553.95 809.657 1518.79C738.416 1459.82 763.755 1340.32 860.707 1329.39Z"/><path fill="white" d="M862.553 1362.36C895.047 1359.55 924.068 1377.35 931.912 1409.78L876.5 1409.81L803.97 1409.8C814.303 1380.66 831.181 1365.51 862.553 1362.36Z"/><path fill="#0D0B0C" d="M653.445 1329.32C654.015 1329.26 654.585 1329.2 655.155 1329.13C680.626 1326.88 705.94 1334.89 725.483 1351.38C745.71 1368.42 759.114 1392.83 761.967 1419.2C763.427 1428.14 757.882 1440.54 747.672 1441.24C732.377 1442.28 715.683 1441.77 700.225 1441.76L595.191 1441.9C595.428 1443.65 595.724 1445.38 596.081 1447.11C608.894 1510.98 688.643 1525.83 724.161 1471.19C726.689 1467.23 730.122 1463.36 734.856 1462.3C739.791 1461.53 746.453 1463.04 750.549 1465.69C762.362 1473.35 753.081 1489.05 746.931 1497.13C730.591 1518.59 705.551 1534.45 678.674 1538.09C651.938 1541.76 624.846 1534.56 603.458 1518.11C581.245 1500.98 567.684 1475.86 564.117 1448.18C560.393 1419.04 568.285 1389.61 586.086 1366.25C604.089 1343.1 624.693 1332.96 653.445 1329.32Z"/><path fill="white" d="M654.676 1362.29C688.812 1359.85 717.844 1374.6 726.071 1409.78L669.75 1409.76C645.776 1410.05 621.8 1409.94 597.83 1409.43C607.852 1380.41 624.406 1366.82 654.676 1362.29Z"/><path fill="#0D0B0C" d="M1550.21 1256.16C1580.21 1252.83 1574.11 1285.64 1574.06 1305.96L1573.87 1378.38C1573.85 1386.29 1572.25 1412.53 1576.28 1417.52C1578.42 1418.43 1579.16 1418.91 1581.44 1417.7C1587.27 1414.6 1593.34 1406.82 1598.15 1402.09C1610.15 1390.31 1665.68 1331.7 1677.37 1330.38C1681.79 1329.88 1686.02 1331.78 1689.23 1334.71C1692.61 1337.8 1694.93 1342.03 1694.97 1346.67C1695.01 1351.36 1693.29 1355.73 1690.58 1359.5C1679.42 1375.01 1643.23 1398.49 1627.63 1413.61L1626.66 1414.55L1699.37 1500.82C1705 1507.47 1709.5 1512.11 1708.93 1521.32C1708.6 1526.3 1706.17 1530.91 1702.25 1534C1695.57 1539.15 1683.4 1538.46 1678.14 1532.42C1653.69 1504.34 1630.18 1474.9 1607.35 1445.44C1604.75 1442.09 1604.59 1440.99 1600.86 1440.62C1597.65 1441.87 1577.56 1458.08 1576.31 1461.11C1567.55 1482.35 1581.57 1512.26 1568.24 1532.65C1562.24 1536.29 1556.26 1538.42 1549.29 1536.44C1537.41 1532.88 1536.92 1522.47 1536.92 1512.02C1536.91 1432.83 1536.67 1353.63 1537.01 1274.44C1537.05 1264.27 1541.66 1260.54 1550.21 1256.16Z"/><path fill="#0D0B0C" d="M1075.7 1329.37C1078.65 1328.83 1083.84 1328.87 1087.47 1328.99C1122.93 1330.24 1173.17 1358.6 1177.22 1396.95C1178.03 1404.66 1169.39 1415.42 1159.88 1413.16C1146.99 1411.09 1144.9 1399 1138.13 1390.45C1116.28 1362.83 1071.18 1357.01 1043.46 1376.41C1028.64 1386.77 1018.67 1402.7 1015.84 1420.56C1004.98 1485.49 1075.08 1524.78 1127.68 1486.49C1138.7 1476.06 1143.89 1459.16 1155.18 1456.28C1159.66 1455.15 1164.4 1455.87 1168.35 1458.28C1183.96 1467.6 1177.1 1482.49 1168.44 1494.1C1151.35 1517.03 1127.13 1534.26 1098.28 1537.96C1072.22 1541.29 1043.74 1533.52 1022.86 1517.52C1000.22 1499.82 986.163 1473.71 982.548 1445.48C977.102 1402.94 998 1362.93 1035.15 1341.95C1048.63 1334.35 1060.41 1331.02 1075.7 1329.37Z"/><path fill="#0D0B0C" d="M1506.34 1329.4C1512.96 1329.68 1517.4 1330.93 1521.39 1336.68C1524.43 1340.98 1525.5 1346.38 1524.35 1351.52C1519.25 1374.39 1492.68 1363.39 1475.62 1375.86C1448.67 1395.56 1450.66 1425.1 1450.79 1453.63L1451.02 1496.81C1451.1 1509.73 1453.38 1528.4 1439.89 1535.44C1428.8 1541.22 1420.67 1534.99 1415.56 1525.14C1414.84 1516.72 1415.27 1501.33 1415.33 1492.72C1415.46 1475.55 1415.49 1458.38 1415.4 1441.21L1415.21 1379.92C1415.18 1369.78 1413.35 1343.89 1418.99 1336.44C1421.78 1332.72 1426.06 1330.4 1430.7 1330.1C1435.77 1329.78 1440.74 1331.61 1444.39 1335.14C1451.62 1342.12 1450.41 1353.45 1450.53 1363.04C1452.67 1360.4 1454.83 1357.78 1457.02 1355.18C1471.58 1337.96 1484.08 1331.32 1506.34 1329.4Z"/></svg>